<svg version="1.1" viewBox="0.0 0.0 600.0 371.0" fill="none" stroke="none" stroke-linecap="square" stroke-miterlimit="10" width="600" height="371" xmlns:xlink="http://www.w3.org/1999/xlink" xmlns="http://www.w3.org/2000/svg"><path fill="#ffffff" d="M0 0L600.0 0L600.0 371.0L0 371.0L0 0Z" fill-rule="nonzero"/><path fill="#4285f4" d="M300.0 18.55C300.10477 18.55 300.20953 18.550098 300.31427 18.550295L300.0 185.5Z" fill-rule="nonzero"/><path fill="#ea4335" d="M300.31427 18.550295C301.0127 18.55161 301.7111 18.557308 302.40942 18.567387L300.0 185.5Z" fill-rule="nonzero"/><path fill="#fbbc04" d="M302.40942 18.567387C306.25067 18.62283 310.08887 18.81084 313.9171 19.131084L300.0 185.5Z" fill-rule="nonzero"/><path fill="#34a853" d="M313.9171 19.131084C317.7454 19.451326 321.56146 19.903612 325.35852 20.48713L300.0 185.5Z" fill-rule="nonzero"/><path fill="#ff6d01" d="M325.35852 20.48713C332.60938 21.601412 339.7789 23.192396 346.82047 25.249739L300.0 185.5Z" fill-rule="nonzero"/><path fill="#46bdc6" d="M346.82047 25.249739C355.20456 27.699326 363.38348 30.8031 371.2819 34.53248L300.0 185.5Z" fill-rule="nonzero"/><path fill="#7baaf7" d="M371.2819 34.53248C381.7118 39.457134 391.60327 45.44938 400.79785 52.413204L300.0 185.5Z" fill-rule="nonzero"/><path fill="#f07b72" d="M400.79785 52.413204C414.74518 62.9767 426.94534 75.666954 436.9516 90.01932L300.0 185.5Z" fill-rule="nonzero"/><path fill="#fcd04f" d="M436.9516 90.01932C458.52405 120.961525 468.98254 158.29712 466.62305 195.94315L300.0 185.5Z" fill-rule="nonzero"/><path fill="#71c287" d="M466.62305 195.94315C463.74335 241.8897 442.01868 284.6079 406.58493 313.99884L300.0 185.5Z" fill-rule="nonzero"/><path fill="#b3cefb" d="M142.08731 239.6838C124.586296 188.67905 132.79828 132.36188 164.13556 88.47857C195.47285 44.595253 246.07625 18.55 300.0 18.55L300.0 185.5Z" fill-rule="nonzero"/><path fill="#7ed1d7" d="M278.42722 351.05035C215.51073 342.85175 162.67957 299.69763 142.08731 239.6838L300.0 185.5Z" fill-rule="nonzero"/><path fill="#ff994d" d="M406.58493 313.99884C370.87082 343.62234 324.43918 357.04614 278.42722 351.05035L300.0 185.5Z" fill-rule="nonzero"/><path fill="#1a1a1a" d="M19.503124 88.82964L19.503124 80.23589L25.70625 80.23589L25.70625 81.25152L20.64375 81.25152L20.64375 83.87652L25.39375 83.87652L25.39375 84.89214L20.64375 84.89214L20.64375 87.81402L25.909374 87.81402L25.909374 88.82964L19.503124 88.82964ZM27.346874 88.82964L27.346874 82.61089L28.284374 82.61089L28.284374 83.48589Q28.971874 82.47027 30.26875 82.47027Q30.83125 82.47027 31.3 82.67339Q31.784374 82.87652 32.01875 83.20464Q32.253124 83.53277 32.346874 83.97027Q32.39375 84.26714 32.39375 85.00152L32.39375 88.82964L31.346874 88.82964L31.346874 85.04839Q31.346874 84.39214 31.221874 84.07964Q31.096874 83.76714 30.784374 83.57964Q30.471874 83.37652 30.05 83.37652Q29.378124 83.37652 28.878124 83.81402Q28.39375 84.23589 28.39375 85.42339L28.39375 88.82964L27.346874 88.82964ZM34.14375 89.34527L35.175 89.50152Q35.2375 89.97027 35.534374 90.18902Q35.925 90.48589 36.596874 90.48589Q37.33125 90.48589 37.721874 90.18902Q38.128124 89.89214 38.26875 89.37652Q38.3625 89.04839 38.346874 88.01714Q37.659374 88.82964 36.628124 88.82964Q35.346874 88.82964 34.64375 87.90777Q33.940624 86.97027 33.940624 85.68902Q33.940624 84.79839 34.253124 84.04839Q34.58125 83.28277 35.190624 82.87652Q35.8 82.47027 36.628124 82.47027Q37.7375 82.47027 38.45625 83.36089L38.45625 82.61089L39.425 82.61089L39.425 87.98589Q39.425 89.43902 39.128124 90.04839Q38.83125 90.65777 38.190624 91.00152Q37.55 91.36089 36.6125 91.36089Q35.503124 91.36089 34.815624 90.86089Q34.128124 90.36089 34.14375 89.34527ZM35.01875 85.61089Q35.01875 86.82964 35.503124 87.39214Q35.9875 87.95464 36.721874 87.95464Q37.45625 87.95464 37.940624 87.39214Q38.440624 86.82964 38.440624 85.64214Q38.440624 84.50152 37.925 83.92339Q37.425 83.34527 36.70625 83.34527Q36.003124 83.34527 35.503124 83.92339Q35.01875 84.48589 35.01875 85.61089ZM41.315624 88.82964L41.315624 80.23589L42.378124 80.23589L42.378124 88.82964L41.315624 88.82964ZM44.346874 81.45464L44.346874 80.23589L45.409374 80.23589L45.409374 81.45464L44.346874 81.45464ZM44.346874 88.82964L44.346874 82.61089L45.409374 82.61089L45.409374 88.82964L44.346874 88.82964ZM46.925 86.97027L47.95625 86.81402Q48.05 87.43902 48.440624 87.76714Q48.846874 88.09527 49.58125 88.09527Q50.3 88.09527 50.64375 87.81402Q51.003124 87.51714 51.003124 87.11089Q51.003124 86.75152 50.690624 86.54839Q50.471874 86.40777 49.6125 86.18902Q48.45625 85.89214 48.003124 85.68902Q47.565624 85.47027 47.33125 85.09527Q47.096874 84.72027 47.096874 84.25152Q47.096874 83.84527 47.284374 83.48589Q47.471874 83.12652 47.8 82.89214Q48.05 82.72027 48.471874 82.59527Q48.89375 82.47027 49.39375 82.47027Q50.1125 82.47027 50.659374 82.68902Q51.221874 82.89214 51.4875 83.25152Q51.753124 83.61089 51.846874 84.20464L50.815624 84.34527Q50.753124 83.87652 50.409374 83.61089Q50.08125 83.32964 49.45625 83.32964Q48.7375 83.32964 48.425 83.57964Q48.1125 83.81402 48.1125 84.14214Q48.1125 84.34527 48.2375 84.50152Q48.378124 84.67339 48.64375 84.78277Q48.8 84.84527 49.58125 85.04839Q50.70625 85.36089 51.14375 85.54839Q51.58125 85.73589 51.83125 86.09527Q52.08125 86.45464 52.08125 87.00152Q52.08125 87.53277 51.76875 88.00152Q51.471874 88.45464 50.89375 88.72027Q50.315624 88.97027 49.58125 88.97027Q48.3625 88.97027 47.721874 88.47027Q47.096874 87.95464 46.925 86.97027ZM54.346874 88.82964L54.346874 80.23589L55.39375 80.23589L55.39375 83.31402Q56.128124 82.47027 57.253124 82.47027Q57.95625 82.47027 58.45625 82.75152Q58.971874 83.01714 59.190624 83.50152Q59.409374 83.97027 59.409374 84.89214L59.409374 88.82964L58.3625 88.82964L58.3625 84.89214Q58.3625 84.09527 58.01875 83.73589Q57.675 83.37652 57.05 83.37652Q56.58125 83.37652 56.159374 83.62652Q55.753124 83.86089 55.565624 84.28277Q55.39375 84.68902 55.39375 85.42339L55.39375 88.82964L54.346874 88.82964Z" fill-rule="nonzero"/><path fill="#9e9e9e" d="M19.05 103.56402L20.1125 103.42339Q20.284374 104.31402 20.721874 104.72027Q21.159374 105.11089 21.784374 105.11089Q22.534374 105.11089 23.05 104.59527Q23.565624 104.07964 23.565624 103.31402Q23.565624 102.59527 23.08125 102.12652Q22.6125 101.64214 21.878124 101.64214Q21.58125 101.64214 21.128124 101.76714L21.253124 100.82964Q21.3625 100.84527 21.425 100.84527Q22.096874 100.84527 22.628124 100.50152Q23.175 100.14214 23.175 99.40777Q23.175 98.82964 22.784374 98.45464Q22.39375 98.06402 21.76875 98.06402Q21.159374 98.06402 20.7375 98.45464Q20.33125 98.84527 20.221874 99.61089L19.159374 99.42339Q19.346874 98.37652 20.034374 97.79839Q20.721874 97.20464 21.7375 97.20464Q22.440624 97.20464 23.034374 97.51714Q23.628124 97.81402 23.940624 98.32964Q24.253124 98.84527 24.253124 99.43902Q24.253124 99.98589 23.95625 100.45464Q23.659374 100.90777 23.08125 101.17339Q23.83125 101.34527 24.253124 101.90777Q24.675 102.45464 24.675 103.29839Q24.675 104.42339 23.846874 105.20464Q23.034374 105.98589 21.784374 105.98589Q20.659374 105.98589 19.909374 105.31402Q19.159374 104.62652 19.05 103.56402ZM26.05 101.59527Q26.05 100.06402 26.3625 99.14214Q26.675 98.20464 27.284374 97.70464Q27.909374 97.20464 28.846874 97.20464Q29.534374 97.20464 30.05 97.48589Q30.58125 97.76714 30.925 98.29839Q31.26875 98.81402 31.45625 99.56402Q31.64375 100.31402 31.64375 101.59527Q31.64375 103.11089 31.33125 104.03277Q31.034374 104.95464 30.409374 105.47027Q29.8 105.97027 28.846874 105.97027Q27.6125 105.97027 26.89375 105.07964Q26.05 104.01714 26.05 101.59527ZM27.128124 101.59527Q27.128124 103.70464 27.628124 104.40777Q28.128124 105.11089 28.846874 105.11089Q29.58125 105.11089 30.065624 104.40777Q30.565624 103.70464 30.565624 101.59527Q30.565624 99.47027 30.065624 98.78277Q29.58125 98.07964 28.83125 98.07964Q28.1125 98.07964 27.675 98.68902Q27.128124 99.47027 27.128124 101.59527ZM33.64375 105.82964L33.64375 104.62652L34.846874 104.62652L34.846874 105.82964L33.64375 105.82964ZM36.05 103.56402L37.1125 103.42339Q37.284374 104.31402 37.721874 104.72027Q38.159374 105.11089 38.784374 105.11089Q39.534374 105.11089 40.05 104.59527Q40.565624 104.07964 40.565624 103.31402Q40.565624 102.59527 40.08125 102.12652Q39.6125 101.64214 38.878124 101.64214Q38.58125 101.64214 38.128124 101.76714L38.253124 100.82964Q38.3625 100.84527 38.425 100.84527Q39.096874 100.84527 39.628124 100.50152Q40.175 100.14214 40.175 99.40777Q40.175 98.82964 39.784374 98.45464Q39.39375 98.06402 38.76875 98.06402Q38.159374 98.06402 37.7375 98.45464Q37.33125 98.84527 37.221874 99.61089L36.159374 99.42339Q36.346874 98.37652 37.034374 97.79839Q37.721874 97.20464 38.7375 97.20464Q39.440624 97.20464 40.034374 97.51714Q40.628124 97.81402 40.940624 98.32964Q41.253124 98.84527 41.253124 99.43902Q41.253124 99.98589 40.95625 100.45464Q40.659374 100.90777 40.08125 101.17339Q40.83125 101.34527 41.253124 101.90777Q41.675 102.45464 41.675 103.29839Q41.675 104.42339 40.846874 105.20464Q40.034374 105.98589 38.784374 105.98589Q37.659374 105.98589 36.909374 105.31402Q36.159374 104.62652 36.05 103.56402ZM43.253124 99.29839Q43.253124 98.37652 43.70625 97.73589Q44.175 97.09527 45.05 97.09527Q45.8625 97.09527 46.39375 97.67339Q46.925 98.25152 46.925 99.36089Q46.925 100.45464 46.378124 101.04839Q45.846874 101.62652 45.065624 101.62652Q44.284374 101.62652 43.76875 101.04839Q43.253124 100.47027 43.253124 99.29839ZM45.08125 97.81402Q44.690624 97.81402 44.425 98.15777Q44.175 98.50152 44.175 99.40777Q44.175 100.23589 44.425 100.57964Q44.690624 100.90777 45.08125 100.90777Q45.4875 100.90777 45.7375 100.56402Q46.003124 100.22027 46.003124 99.32964Q46.003124 98.48589 45.7375 98.15777Q45.471874 97.81402 45.08125 97.81402ZM45.08125 106.14214L49.784374 97.09527L50.64375 97.09527L45.95625 106.14214L45.08125 106.14214ZM48.8 103.81402Q48.8 102.89214 49.253124 102.25152Q49.721874 101.61089 50.6125 101.61089Q51.425 101.61089 51.95625 102.18902Q52.4875 102.75152 52.4875 103.87652Q52.4875 104.97027 51.940624 105.56402Q51.409374 106.14214 50.6125 106.14214Q49.846874 106.14214 49.315624 105.56402Q48.8 104.98589 48.8 103.81402ZM50.64375 102.32964Q50.2375 102.32964 49.971874 102.67339Q49.721874 103.01714 49.721874 103.92339Q49.721874 104.73589 49.9875 105.07964Q50.253124 105.42339 50.64375 105.42339Q51.034374 105.42339 51.3 105.07964Q51.565624 104.73589 51.565624 103.82964Q51.565624 103.00152 51.3 102.67339Q51.034374 102.32964 50.64375 102.32964Z" fill-rule="nonzero"/><path stroke="#757575" stroke-width="1.0" stroke-linecap="butt" d="M18.55 93.32964L127.05 93.32964L170.92879 93.32964" fill-rule="nonzero"/><path fill="#9e9e9e" d="M172.92879 93.32964C172.92879 92.22507 172.03336 91.32964 170.92879 91.32964C169.82422 91.32964 168.92879 92.22507 168.92879 93.32964C168.92879 94.43421 169.82422 95.32964 170.92879 95.32964C172.03336 95.32964 172.92879 94.43421 172.92879 93.32964" fill-rule="nonzero"/><path fill="#1a1a1a" d="M25.6125 300.81726L26.7375 301.11414Q26.378124 302.50476 25.45625 303.23914Q24.534374 303.9735 23.190624 303.9735Q21.8 303.9735 20.925 303.411Q20.05 302.8485 19.596874 301.786Q19.14375 300.7079 19.14375 299.4735Q19.14375 298.12976 19.659374 297.12976Q20.175 296.12976 21.1125 295.61414Q22.065624 295.0985 23.20625 295.0985Q24.4875 295.0985 25.3625 295.75476Q26.253124 296.411 26.596874 297.5985L25.471874 297.86414Q25.175 296.92664 24.596874 296.50476Q24.034374 296.06726 23.175 296.06726Q22.190624 296.06726 21.51875 296.55164Q20.8625 297.0204 20.58125 297.81726Q20.315624 298.61414 20.315624 299.4735Q20.315624 300.56726 20.628124 301.37976Q20.95625 302.19226 21.628124 302.5985Q22.3 303.00476 23.096874 303.00476Q24.05 303.00476 24.70625 302.4579Q25.378124 301.911 25.6125 300.81726ZM28.346874 303.8329L28.346874 295.23914L29.39375 295.23914L29.39375 298.31726Q30.128124 297.4735 31.253124 297.4735Q31.95625 297.4735 32.45625 297.75476Q32.971874 298.0204 33.190624 298.50476Q33.409374 298.9735 33.409374 299.8954L33.409374 303.8329L32.3625 303.8329L32.3625 299.8954Q32.3625 299.0985 32.01875 298.73914Q31.675 298.37976 31.05 298.37976Q30.58125 298.37976 30.159374 298.62976Q29.753124 298.86414 29.565624 299.286Q29.39375 299.69226 29.39375 300.42664L29.39375 303.8329L28.346874 303.8329ZM35.346874 296.4579L35.346874 295.23914L36.409374 295.23914L36.409374 296.4579L35.346874 296.4579ZM35.346874 303.8329L35.346874 297.61414L36.409374 297.61414L36.409374 303.8329L35.346874 303.8329ZM38.346874 303.8329L38.346874 297.61414L39.284374 297.61414L39.284374 298.48914Q39.971874 297.4735 41.26875 297.4735Q41.83125 297.4735 42.3 297.67664Q42.784374 297.87976 43.01875 298.2079Q43.253124 298.536 43.346874 298.9735Q43.39375 299.2704 43.39375 300.00476L43.39375 303.8329L42.346874 303.8329L42.346874 300.05164Q42.346874 299.3954 42.221874 299.0829Q42.096874 298.7704 41.784374 298.5829Q41.471874 298.37976 41.05 298.37976Q40.378124 298.37976 39.878124 298.81726Q39.39375 299.23914 39.39375 300.42664L39.39375 303.8329L38.346874 303.8329ZM49.596874 301.8329L50.690624 301.9579Q50.440624 302.911 49.7375 303.44226Q49.034374 303.9735 47.95625 303.9735Q46.596874 303.9735 45.784374 303.12976Q44.9875 302.286 44.9875 300.7704Q44.9875 299.2079 45.8 298.3485Q46.6125 297.4735 47.89375 297.4735Q49.14375 297.4735 49.925 298.31726Q50.721874 299.161 50.721874 300.7079Q50.721874 300.80164 50.721874 300.98914L46.08125 300.98914Q46.14375 302.0204 46.659374 302.56726Q47.175 303.0985 47.95625 303.0985Q48.534374 303.0985 48.940624 302.80164Q49.3625 302.48914 49.596874 301.8329ZM46.14375 300.12976L49.6125 300.12976Q49.55 299.3329 49.221874 298.94226Q48.70625 298.3329 47.909374 298.3329Q47.175 298.3329 46.675 298.81726Q46.190624 299.30164 46.14375 300.12976ZM51.925 301.9735L52.95625 301.81726Q53.05 302.44226 53.440624 302.7704Q53.846874 303.0985 54.58125 303.0985Q55.3 303.0985 55.64375 302.81726Q56.003124 302.5204 56.003124 302.11414Q56.003124 301.75476 55.690624 301.55164Q55.471874 301.411 54.6125 301.19226Q53.45625 300.8954 53.003124 300.69226Q52.565624 300.4735 52.33125 300.0985Q52.096874 299.7235 52.096874 299.25476Q52.096874 298.8485 52.284374 298.48914Q52.471874 298.12976 52.8 297.8954Q53.05 297.7235 53.471874 297.5985Q53.89375 297.4735 54.39375 297.4735Q55.1125 297.4735 55.659374 297.69226Q56.221874 297.8954 56.4875 298.25476Q56.753124 298.61414 56.846874 299.2079L55.815624 299.3485Q55.753124 298.87976 55.409374 298.61414Q55.08125 298.3329 54.45625 298.3329Q53.7375 298.3329 53.425 298.5829Q53.1125 298.81726 53.1125 299.1454Q53.1125 299.3485 53.2375 299.50476Q53.378124 299.67664 53.64375 299.786Q53.8 299.8485 54.58125 300.05164Q55.70625 300.36414 56.14375 300.55164Q56.58125 300.73914 56.83125 301.0985Q57.08125 301.4579 57.08125 302.00476Q57.08125 302.536 56.76875 303.00476Q56.471874 303.4579 55.89375 303.7235Q55.315624 303.9735 54.58125 303.9735Q53.3625 303.9735 52.721874 303.4735Q52.096874 302.9579 51.925 301.9735ZM63.596874 301.8329L64.69063 301.9579Q64.44063 302.911 63.7375 303.44226Q63.034374 303.9735 61.95625 303.9735Q60.596874 303.9735 59.784374 303.12976Q58.9875 302.286 58.9875 300.7704Q58.9875 299.2079 59.8 298.3485Q60.6125 297.4735 61.89375 297.4735Q63.14375 297.4735 63.925 298.31726Q64.72188 299.161 64.72188 300.7079Q64.72188 300.80164 64.72188 300.98914L60.08125 300.98914Q60.14375 302.0204 60.659374 302.56726Q61.175 303.0985 61.95625 303.0985Q62.534374 303.0985 62.940624 302.80164Q63.3625 302.48914 63.596874 301.8329ZM60.14375 300.12976L63.6125 300.12976Q63.55 299.3329 63.221874 298.94226Q62.70625 298.3329 61.909374 298.3329Q61.175 298.3329 60.675 298.81726Q60.190624 299.30164 60.14375 300.12976Z" fill-rule="nonzero"/><path fill="#9e9e9e" d="M23.01875 320.8329L21.971874 320.8329L21.971874 314.11414Q21.58125 314.4735 20.95625 314.8485Q20.346874 315.2079 19.8625 315.37976L19.8625 314.36414Q20.7375 313.94226 21.39375 313.36414Q22.065624 312.7704 22.346874 312.2079L23.01875 312.2079L23.01875 320.8329ZM26.1125 313.36414L26.1125 312.3485L31.675 312.3485L31.675 313.17664Q30.8625 314.05164 30.05 315.50476Q29.253124 316.94226 28.815624 318.4735Q28.4875 319.55164 28.409374 320.8329L27.315624 320.8329Q27.33125 319.81726 27.70625 318.37976Q28.096874 316.94226 28.8 315.61414Q29.51875 314.286 30.33125 313.36414L26.1125 313.36414ZM33.64375 320.8329L33.64375 319.62976L34.846874 319.62976L34.846874 320.8329L33.64375 320.8329ZM36.1125 313.36414L36.1125 312.3485L41.675 312.3485L41.675 313.17664Q40.8625 314.05164 40.05 315.50476Q39.253124 316.94226 38.815624 318.4735Q38.4875 319.55164 38.409374 320.8329L37.315624 320.8329Q37.33125 319.81726 37.70625 318.37976Q38.096874 316.94226 38.8 315.61414Q39.51875 314.286 40.33125 313.36414L36.1125 313.36414ZM43.253124 314.30164Q43.253124 313.37976 43.70625 312.73914Q44.175 312.0985 45.05 312.0985Q45.8625 312.0985 46.39375 312.67664Q46.925 313.25476 46.925 314.36414Q46.925 315.4579 46.378124 316.05164Q45.846874 316.62976 45.065624 316.62976Q44.284374 316.62976 43.76875 316.05164Q43.253124 315.4735 43.253124 314.30164ZM45.08125 312.81726Q44.690624 312.81726 44.425 313.161Q44.175 313.50476 44.175 314.411Q44.175 315.23914 44.425 315.5829Q44.690624 315.911 45.08125 315.911Q45.4875 315.911 45.7375 315.56726Q46.003124 315.2235 46.003124 314.3329Q46.003124 313.48914 45.7375 313.161Q45.471874 312.81726 45.08125 312.81726ZM45.08125 321.1454L49.784374 312.0985L50.64375 312.0985L45.95625 321.1454L45.08125 321.1454ZM48.8 318.81726Q48.8 317.8954 49.253124 317.25476Q49.721874 316.61414 50.6125 316.61414Q51.425 316.61414 51.95625 317.19226Q52.4875 317.75476 52.4875 318.87976Q52.4875 319.9735 51.940624 320.56726Q51.409374 321.1454 50.6125 321.1454Q49.846874 321.1454 49.315624 320.56726Q48.8 319.98914 48.8 318.81726ZM50.64375 317.3329Q50.2375 317.3329 49.971874 317.67664Q49.721874 318.0204 49.721874 318.92664Q49.721874 319.73914 49.9875 320.0829Q50.253124 320.42664 50.64375 320.42664Q51.034374 320.42664 51.3 320.0829Q51.565624 319.73914 51.565624 318.8329Q51.565624 318.00476 51.3 317.67664Q51.034374 317.3329 50.64375 317.3329Z" fill-rule="nonzero"/><path stroke="#757575" stroke-width="1.0" stroke-linecap="butt" d="M18.55 308.3329L127.05 308.3329L199.6664 308.3329" fill-rule="nonzero"/><path fill="#9e9e9e" d="M201.6664 308.3329C201.6664 307.22833 200.77097 306.3329 199.6664 306.3329C198.56183 306.3329 197.6664 307.22833 197.6664 308.3329C197.6664 309.43747 198.56183 310.3329 199.6664 310.3329C200.77097 310.3329 201.6664 309.43747 201.6664 308.3329" fill-rule="nonzero"/><path fill="#1a1a1a" d="M556.575 29.55L556.575 20.95625L557.7 20.95625L557.7 29.55L556.575 29.55ZM559.2469 29.55L559.2469 23.33125L560.1844 23.33125L560.1844 24.20625Q560.8719 23.190624 562.16876 23.190624Q562.73126 23.190624 563.2 23.39375Q563.6844 23.596874 563.91876 23.925Q564.15314 24.253124 564.2469 24.690624Q564.29376 24.9875 564.29376 25.721874L564.29376 29.55L563.2469 29.55L563.2469 25.76875Q563.2469 25.1125 563.1219 24.8Q562.9969 24.4875 562.6844 24.3Q562.3719 24.096874 561.95 24.096874Q561.27814 24.096874 560.77814 24.534374Q560.29376 24.95625 560.29376 26.14375L560.29376 29.55L559.2469 29.55ZM570.27814 29.55L570.27814 28.76875Q569.6844 29.690624 568.54376 29.690624Q567.79376 29.690624 567.16876 29.284374Q566.54376 28.8625 566.2 28.128124Q565.85626 27.39375 565.85626 26.440624Q565.85626 25.51875 566.16876 24.753124Q566.48126 23.9875 567.10626 23.596874Q567.73126 23.190624 568.4969 23.190624Q569.0594 23.190624 569.4969 23.425Q569.9344 23.659374 570.21564 24.034374L570.21564 20.95625L571.2625 20.95625L571.2625 29.55L570.27814 29.55ZM566.95 26.440624Q566.95 27.64375 567.45 28.2375Q567.95 28.815624 568.6375 28.815624Q569.325 28.815624 569.8094 28.253124Q570.29376 27.690624 570.29376 26.534374Q570.29376 25.253124 569.79376 24.659374Q569.3094 24.065624 568.59064 24.065624Q567.8875 24.065624 567.41876 24.64375Q566.95 25.20625 566.95 26.440624ZM573.2469 22.175L573.2469 20.95625L574.3094 20.95625L574.3094 22.175L573.2469 22.175ZM573.2469 29.55L573.2469 23.33125L574.3094 23.33125L574.3094 29.55L573.2469 29.55ZM580.3094 27.26875L581.34064 27.409374Q581.16876 28.471874 580.46564 29.08125Q579.7625 29.690624 578.7469 29.690624Q577.46564 29.690624 576.6844 28.8625Q575.91876 28.01875 575.91876 26.45625Q575.91876 25.45625 576.2469 24.70625Q576.59064 23.940624 577.2625 23.565624Q577.95 23.190624 578.7625 23.190624Q579.7625 23.190624 580.40314 23.70625Q581.0594 24.20625 581.2469 25.159374L580.21564 25.315624Q580.075 24.690624 579.7 24.378124Q579.325 24.05 578.79376 24.05Q577.9969 24.05 577.4969 24.628124Q576.9969 25.190624 576.9969 26.425Q576.9969 27.690624 577.48126 28.253124Q577.96564 28.815624 578.73126 28.815624Q579.35626 28.815624 579.7625 28.440624Q580.1844 28.065624 580.3094 27.26875Z" fill-rule="nonzero"/><path fill="#9e9e9e" d="M559.4969 45.534374L559.4969 46.55L553.8094 46.55Q553.8094 46.175 553.9344 45.815624Q554.15314 45.2375 554.6219 44.675Q555.10626 44.1125 556.0125 43.378124Q557.41876 42.221874 557.90314 41.55Q558.40314 40.878124 558.40314 40.284374Q558.40314 39.659374 557.95 39.2375Q557.4969 38.8 556.77814 38.8Q556.0125 38.8 555.5594 39.253124Q555.10626 39.70625 555.09064 40.51875L554.0125 40.409374Q554.1219 39.190624 554.84064 38.565624Q555.575 37.925 556.8094 37.925Q558.04376 37.925 558.7625 38.6125Q559.48126 39.3 559.48126 40.315624Q559.48126 40.83125 559.2625 41.33125Q559.0594 41.815624 558.5594 42.378124Q558.075 42.925 556.95 43.878124Q555.9969 44.675 555.71564 44.971874Q555.45 45.253124 555.27814 45.534374L559.4969 45.534374ZM561.54376 46.55L561.54376 45.346874L562.7469 45.346874L562.7469 46.55L561.54376 46.55ZM567.91876 46.55L566.8719 46.55L566.8719 39.83125Q566.48126 40.190624 565.85626 40.565624Q565.2469 40.925 564.7625 41.096874L564.7625 40.08125Q565.6375 39.659374 566.29376 39.08125Q566.96564 38.4875 567.2469 37.925L567.91876 37.925L567.91876 46.55ZM571.15314 40.01875Q571.15314 39.096874 571.60626 38.45625Q572.075 37.815624 572.95 37.815624Q573.7625 37.815624 574.29376 38.39375Q574.825 38.971874 574.825 40.08125Q574.825 41.175 574.27814 41.76875Q573.7469 42.346874 572.96564 42.346874Q572.1844 42.346874 571.66876 41.76875Q571.15314 41.190624 571.15314 40.01875ZM572.98126 38.534374Q572.59064 38.534374 572.325 38.878124Q572.075 39.221874 572.075 40.128124Q572.075 40.95625 572.325 41.3Q572.59064 41.628124 572.98126 41.628124Q573.3875 41.628124 573.6375 41.284374Q573.90314 40.940624 573.90314 40.05Q573.90314 39.20625 573.6375 38.878124Q573.3719 38.534374 572.98126 38.534374ZM572.98126 46.8625L577.6844 37.815624L578.54376 37.815624L573.85626 46.8625L572.98126 46.8625ZM576.7 44.534374Q576.7 43.6125 577.15314 42.971874Q577.6219 42.33125 578.5125 42.33125Q579.325 42.33125 579.85626 42.909374Q580.3875 43.471874 580.3875 44.596874Q580.3875 45.690624 579.84064 46.284374Q579.3094 46.8625 578.5125 46.8625Q577.7469 46.8625 577.21564 46.284374Q576.7 45.70625 576.7 44.534374ZM578.54376 43.05Q578.1375 43.05 577.8719 43.39375Q577.6219 43.7375 577.6219 44.64375Q577.6219 45.45625 577.8875 45.8Q578.15314 46.14375 578.54376 46.14375Q578.9344 46.14375 579.2 45.8Q579.46564 45.45625 579.46564 44.55Q579.46564 43.721874 579.2 43.39375Q578.9344 43.05 578.54376 43.05Z" fill-rule="nonzero"/><path stroke="#757575" stroke-width="1.0" stroke-linecap="butt" d="M581.45 34.05L472.95 34.05L334.3596 30.664047" fill-rule="nonzero"/><path fill="#9e9e9e" d="M336.3596 30.664047C336.3596 29.559477 335.46414 28.664047 334.3596 28.664047C333.255 28.664047 332.3596 29.559477 332.3596 30.664047C332.3596 31.768616 333.255 32.664047 334.3596 32.664047C335.46414 32.664047 336.3596 31.768616 336.3596 30.664047" fill-rule="nonzero"/><path fill="#1a1a1a" d="M518.825 60.55L515.4969 51.95625L516.73126 51.95625L518.96564 58.20625Q519.23126 58.95625 519.41876 59.6125Q519.6219 58.909374 519.8875 58.20625L522.2 51.95625L523.35626 51.95625L519.9969 60.55L518.825 60.55ZM523.2469 53.175L523.2469 51.95625L524.3094 51.95625L524.3094 53.175L523.2469 53.175ZM523.2469 60.55L523.2469 54.33125L524.3094 54.33125L524.3094 60.55L523.2469 60.55ZM530.4969 58.55L531.59064 58.675Q531.34064 59.628124 530.6375 60.159374Q529.9344 60.690624 528.85626 60.690624Q527.4969 60.690624 526.6844 59.846874Q525.8875 59.003124 525.8875 57.4875Q525.8875 55.925 526.7 55.065624Q527.5125 54.190624 528.79376 54.190624Q530.04376 54.190624 530.825 55.034374Q531.6219 55.878124 531.6219 57.425Q531.6219 57.51875 531.6219 57.70625L526.98126 57.70625Q527.04376 58.7375 527.5594 59.284374Q528.075 59.815624 528.85626 59.815624Q529.4344 59.815624 529.84064 59.51875Q530.2625 59.20625 530.4969 58.55ZM527.04376 56.846874L530.5125 56.846874Q530.45 56.05 530.1219 55.659374Q529.60626 55.05 528.8094 55.05Q528.075 55.05 527.575 55.534374Q527.09064 56.01875 527.04376 56.846874ZM535.54376 59.6125L535.7 60.534374Q535.2469 60.628124 534.90314 60.628124Q534.325 60.628124 534.0125 60.45625Q533.7 60.26875 533.5594 59.971874Q533.4344 59.675 533.4344 58.721874L533.4344 55.14375L532.66876 55.14375L532.66876 54.33125L533.4344 54.33125L533.4344 52.784374L534.48126 52.159374L534.48126 54.33125L535.54376 54.33125L535.54376 55.14375L534.48126 55.14375L534.48126 58.784374Q534.48126 59.2375 534.52814 59.3625Q534.59064 59.4875 534.71564 59.565624Q534.84064 59.64375 535.075 59.64375Q535.2625 59.64375 535.54376 59.6125ZM536.2469 60.55L536.2469 54.33125L537.1844 54.33125L537.1844 55.20625Q537.8719 54.190624 539.16876 54.190624Q539.73126 54.190624 540.2 54.39375Q540.6844 54.596874 540.91876 54.925Q541.15314 55.253124 541.2469 55.690624Q541.29376 55.9875 541.29376 56.721874L541.29376 60.55L540.2469 60.55L540.2469 56.76875Q540.2469 56.1125 540.1219 55.8Q539.9969 55.4875 539.6844 55.3Q539.3719 55.096874 538.95 55.096874Q538.27814 55.096874 537.77814 55.534374Q537.29376 55.95625 537.29376 57.14375L537.29376 60.55L536.2469 60.55ZM547.3094 59.784374Q546.71564 60.284374 546.16876 60.4875Q545.6375 60.690624 545.0125 60.690624Q543.98126 60.690624 543.4344 60.190624Q542.8875 59.690624 542.8875 58.909374Q542.8875 58.45625 543.09064 58.08125Q543.29376 57.690624 543.6375 57.471874Q543.98126 57.2375 544.40314 57.128124Q544.7 57.034374 545.34064 56.95625Q546.60626 56.815624 547.21564 56.596874Q547.21564 56.378124 547.21564 56.33125Q547.21564 55.675 546.91876 55.409374Q546.5125 55.065624 545.71564 55.065624Q544.98126 55.065624 544.6219 55.33125Q544.2625 55.58125 544.09064 56.2375L543.0594 56.096874Q543.2 55.440624 543.52814 55.034374Q543.85626 54.628124 544.46564 54.409374Q545.075 54.190624 545.8719 54.190624Q546.66876 54.190624 547.16876 54.378124Q547.66876 54.565624 547.90314 54.846874Q548.1375 55.128124 548.23126 55.565624Q548.27814 55.83125 548.27814 56.534374L548.27814 57.940624Q548.27814 59.409374 548.34064 59.8Q548.41876 60.190624 548.6219 60.55L547.5125 60.55Q547.35626 60.221874 547.3094 59.784374ZM547.21564 57.425Q546.6375 57.659374 545.4969 57.83125Q544.84064 57.925 544.575 58.05Q544.3094 58.159374 544.15314 58.378124Q544.0125 58.596874 544.0125 58.878124Q544.0125 59.3 544.325 59.58125Q544.65314 59.8625 545.2625 59.8625Q545.8719 59.8625 546.34064 59.596874Q546.825 59.33125 547.04376 58.8625Q547.21564 58.503124 547.21564 57.815624L547.21564 57.425ZM550.2469 60.55L550.2469 54.33125L551.1844 54.33125L551.1844 55.20625Q551.48126 54.7375 551.96564 54.471874Q552.45 54.190624 553.075 54.190624Q553.7625 54.190624 554.2 54.471874Q554.65314 54.753124 554.825 55.26875Q555.575 54.190624 556.7469 54.190624Q557.6844 54.190624 558.16876 54.70625Q558.66876 55.20625 558.66876 56.284374L558.66876 60.55L557.6219 60.55L557.6219 56.628124Q557.6219 56.003124 557.5125 55.721874Q557.41876 55.440624 557.15314 55.26875Q556.8875 55.096874 556.5125 55.096874Q555.85626 55.096874 555.41876 55.534374Q554.9969 55.971874 554.9969 56.940624L554.9969 60.55L553.9344 60.55L553.9344 56.503124Q553.9344 55.8 553.66876 55.45625Q553.41876 55.096874 552.84064 55.096874Q552.3875 55.096874 552.0125 55.33125Q551.6375 55.565624 551.46564 56.01875Q551.29376 56.471874 551.29376 57.315624L551.29376 60.55L550.2469 60.55ZM565.4969 58.55L566.59064 58.675Q566.34064 59.628124 565.6375 60.159374Q564.9344 60.690624 563.85626 60.690624Q562.4969 60.690624 561.6844 59.846874Q560.8875 59.003124 560.8875 57.4875Q560.8875 55.925 561.7 55.065624Q562.5125 54.190624 563.79376 54.190624Q565.04376 54.190624 565.825 55.034374Q566.6219 55.878124 566.6219 57.425Q566.6219 57.51875 566.6219 57.70625L561.98126 57.70625Q562.04376 58.7375 562.5594 59.284374Q563.075 59.815624 563.85626 59.815624Q564.4344 59.815624 564.84064 59.51875Q565.2625 59.20625 565.4969 58.55ZM562.04376 56.846874L565.5125 56.846874Q565.45 56.05 565.1219 55.659374Q564.60626 55.05 563.8094 55.05Q563.075 55.05 562.575 55.534374Q562.09064 56.01875 562.04376 56.846874ZM567.825 58.690624L568.85626 58.534374Q568.95 59.159374 569.34064 59.4875Q569.7469 59.815624 570.48126 59.815624Q571.2 59.815624 571.54376 59.534374Q571.90314 59.2375 571.90314 58.83125Q571.90314 58.471874 571.59064 58.26875Q571.3719 58.128124 570.5125 57.909374Q569.35626 57.6125 568.90314 57.409374Q568.46564 57.190624 568.23126 56.815624Q567.9969 56.440624 567.9969 55.971874Q567.9969 55.565624 568.1844 55.20625Q568.3719 54.846874 568.7 54.6125Q568.95 54.440624 569.3719 54.315624Q569.79376 54.190624 570.29376 54.190624Q571.0125 54.190624 571.5594 54.409374Q572.1219 54.6125 572.3875 54.971874Q572.65314 55.33125 572.7469 55.925L571.71564 56.065624Q571.65314 55.596874 571.3094 55.33125Q570.98126 55.05 570.35626 55.05Q569.6375 55.05 569.325 55.3Q569.0125 55.534374 569.0125 55.8625Q569.0125 56.065624 569.1375 56.221874Q569.27814 56.39375 569.54376 56.503124Q569.7 56.565624 570.48126 56.76875Q571.60626 57.08125 572.04376 57.26875Q572.48126 57.45625 572.73126 57.815624Q572.98126 58.175 572.98126 58.721874Q572.98126 59.253124 572.66876 59.721874Q572.3719 60.175 571.79376 60.440624Q571.21564 60.690624 570.48126 60.690624Q569.2625 60.690624 568.6219 60.190624Q567.9969 59.675 567.825 58.690624ZM579.4969 58.55L580.59064 58.675Q580.34064 59.628124 579.6375 60.159374Q578.9344 60.690624 577.85626 60.690624Q576.4969 60.690624 575.6844 59.846874Q574.8875 59.003124 574.8875 57.4875Q574.8875 55.925 575.7 55.065624Q576.5125 54.190624 577.79376 54.190624Q579.04376 54.190624 579.825 55.034374Q580.6219 55.878124 580.6219 57.425Q580.6219 57.51875 580.6219 57.70625L575.98126 57.70625Q576.04376 58.7375 576.5594 59.284374Q577.075 59.815624 577.85626 59.815624Q578.4344 59.815624 578.84064 59.51875Q579.2625 59.20625 579.4969 58.55ZM576.04376 56.846874L579.5125 56.846874Q579.45 56.05 579.1219 55.659374Q578.60626 55.05 577.8094 55.05Q577.075 55.05 576.575 55.534374Q576.09064 56.01875 576.04376 56.846874Z" fill-rule="nonzero"/><path fill="#9e9e9e" d="M559.4969 76.53438L559.4969 77.55L553.8094 77.55Q553.8094 77.175 553.9344 76.81563Q554.15314 76.2375 554.6219 75.675Q555.10626 75.1125 556.0125 74.37813Q557.41876 73.22188 557.90314 72.55Q558.40314 71.87813 558.40314 71.28438Q558.40314 70.65938 557.95 70.2375Q557.4969 69.8 556.77814 69.8Q556.0125 69.8 555.5594 70.25313Q555.10626 70.70625 555.09064 71.51875L554.0125 71.40938Q554.1219 70.19063 554.84064 69.56563Q555.575 68.925 556.8094 68.925Q558.04376 68.925 558.7625 69.6125Q559.48126 70.3 559.48126 71.31563Q559.48126 71.83125 559.2625 72.33125Q559.0594 72.81563 558.5594 73.37813Q558.075 73.925 556.95 74.87813Q555.9969 75.675 555.71564 75.97188Q555.45 76.25313 555.27814 76.53438L559.4969 76.53438ZM561.54376 77.55L561.54376 76.34688L562.7469 76.34688L562.7469 77.55L561.54376 77.55ZM563.95 75.3L565.0594 75.20625Q565.1844 76.01875 565.6219 76.425Q566.075 76.83125 566.71564 76.83125Q567.46564 76.83125 567.9969 76.25313Q568.52814 75.675 568.52814 74.7375Q568.52814 73.83125 568.0125 73.31563Q567.5125 72.78438 566.6844 72.78438Q566.1844 72.78438 565.7625 73.01875Q565.35626 73.25313 565.1219 73.6125L564.1375 73.4875L564.96564 69.08125L569.2469 69.08125L569.2469 70.08125L565.8094 70.08125L565.35626 72.39375Q566.1219 71.84688 566.96564 71.84688Q568.09064 71.84688 568.85626 72.62813Q569.6375 73.40938 569.6375 74.64375Q569.6375 75.8 568.96564 76.65938Q568.1375 77.69063 566.71564 77.69063Q565.54376 77.69063 564.79376 77.03438Q564.0594 76.37813 563.95 75.3ZM571.15314 71.01875Q571.15314 70.09688 571.60626 69.45625Q572.075 68.81563 572.95 68.81563Q573.7625 68.81563 574.29376 69.39375Q574.825 69.97188 574.825 71.08125Q574.825 72.175 574.27814 72.76875Q573.7469 73.34688 572.96564 73.34688Q572.1844 73.34688 571.66876 72.76875Q571.15314 72.19063 571.15314 71.01875ZM572.98126 69.53438Q572.59064 69.53438 572.325 69.87813Q572.075 70.22188 572.075 71.12813Q572.075 71.95625 572.325 72.3Q572.59064 72.62813 572.98126 72.62813Q573.3875 72.62813 573.6375 72.28438Q573.90314 71.94063 573.90314 71.05Q573.90314 70.20625 573.6375 69.87813Q573.3719 69.53438 572.98126 69.53438ZM572.98126 77.8625L577.6844 68.81563L578.54376 68.81563L573.85626 77.8625L572.98126 77.8625ZM576.7 75.53438Q576.7 74.6125 577.15314 73.97188Q577.6219 73.33125 578.5125 73.33125Q579.325 73.33125 579.85626 73.90938Q580.3875 74.47188 580.3875 75.59688Q580.3875 76.69063 579.84064 77.28438Q579.3094 77.8625 578.5125 77.8625Q577.7469 77.8625 577.21564 77.28438Q576.7 76.70625 576.7 75.53438ZM578.54376 74.05Q578.1375 74.05 577.8719 74.39375Q577.6219 74.7375 577.6219 75.64375Q577.6219 76.45625 577.8875 76.8Q578.15314 77.14375 578.54376 77.14375Q578.9344 77.14375 579.2 76.8Q579.46564 76.45625 579.46564 75.55Q579.46564 74.72188 579.2 74.39375Q578.9344 74.05 578.54376 74.05Z" fill-rule="nonzero"/><path stroke="#757575" stroke-width="1.0" stroke-linecap="butt" d="M581.45 65.05L472.95 65.05L356.27164 37.215626" fill-rule="nonzero"/><path fill="#9e9e9e" d="M358.27164 37.215626C358.27164 36.111057 357.37622 35.215626 356.27164 35.215626C355.16708 35.215626 354.27164 36.111057 354.27164 37.215626C354.27164 38.320198 355.16708 39.215626 356.27164 39.215626C357.37622 39.215626 358.27164 38.320198 358.27164 37.215626" fill-rule="nonzero"/><path fill="#1a1a1a" d="M547.4344 91.55L550.73126 82.95625L551.95 82.95625L555.46564 91.55L554.1844 91.55L553.16876 88.94063L549.59064 88.94063L548.6375 91.55L547.4344 91.55ZM549.91876 88.01875L552.825 88.01875L551.9344 85.64375Q551.5125 84.56563 551.325 83.8625Q551.15314 84.69063 550.85626 85.50313L549.91876 88.01875ZM555.23126 91.55L555.23126 85.33125L556.1844 85.33125L556.1844 86.26875Q556.54376 85.6125 556.84064 85.40938Q557.15314 85.19063 557.52814 85.19063Q558.0594 85.19063 558.60626 85.51875L558.2469 86.50313Q557.85626 86.26875 557.48126 86.26875Q557.1219 86.26875 556.84064 86.4875Q556.575 86.69063 556.46564 87.06563Q556.27814 87.62813 556.27814 88.28438L556.27814 91.55L555.23126 91.55ZM563.3094 90.78438Q562.71564 91.28438 562.16876 91.4875Q561.6375 91.69063 561.0125 91.69063Q559.98126 91.69063 559.4344 91.19063Q558.8875 90.69063 558.8875 89.90938Q558.8875 89.45625 559.09064 89.08125Q559.29376 88.69063 559.6375 88.47188Q559.98126 88.2375 560.40314 88.12813Q560.7 88.03438 561.34064 87.95625Q562.60626 87.81563 563.21564 87.59688Q563.21564 87.37813 563.21564 87.33125Q563.21564 86.675 562.91876 86.40938Q562.5125 86.06563 561.71564 86.06563Q560.98126 86.06563 560.6219 86.33125Q560.2625 86.58125 560.09064 87.2375L559.0594 87.09688Q559.2 86.44063 559.52814 86.03438Q559.85626 85.62813 560.46564 85.40938Q561.075 85.19063 561.8719 85.19063Q562.66876 85.19063 563.16876 85.37813Q563.66876 85.56563 563.90314 85.84688Q564.1375 86.12813 564.23126 86.56563Q564.27814 86.83125 564.27814 87.53438L564.27814 88.94063Q564.27814 90.40938 564.34064 90.8Q564.41876 91.19063 564.6219 91.55L563.5125 91.55Q563.35626 91.22188 563.3094 90.78438ZM563.21564 88.425Q562.6375 88.65938 561.4969 88.83125Q560.84064 88.925 560.575 89.05Q560.3094 89.15938 560.15314 89.37813Q560.0125 89.59688 560.0125 89.87813Q560.0125 90.3 560.325 90.58125Q560.65314 90.8625 561.2625 90.8625Q561.8719 90.8625 562.34064 90.59688Q562.825 90.33125 563.04376 89.8625Q563.21564 89.50313 563.21564 88.81563L563.21564 88.425ZM567.21564 91.55L566.23126 91.55L566.23126 82.95625L567.29376 82.95625L567.29376 86.01875Q567.96564 85.19063 568.9969 85.19063Q569.575 85.19063 570.075 85.425Q570.59064 85.64375 570.91876 86.06563Q571.2625 86.4875 571.45 87.08125Q571.6375 87.675 571.6375 88.34688Q571.6375 89.94063 570.84064 90.81563Q570.04376 91.69063 568.95 91.69063Q567.84064 91.69063 567.21564 90.76875L567.21564 91.55ZM567.2 88.39375Q567.2 89.50313 567.5125 90.00313Q568.0125 90.81563 568.85626 90.81563Q569.54376 90.81563 570.04376 90.22188Q570.5594 89.62813 570.5594 88.425Q570.5594 87.20625 570.075 86.62813Q569.59064 86.05 568.90314 86.05Q568.21564 86.05 567.7 86.65938Q567.2 87.25313 567.2 88.39375ZM573.2469 84.175L573.2469 82.95625L574.3094 82.95625L574.3094 84.175L573.2469 84.175ZM573.2469 91.55L573.2469 85.33125L574.3094 85.33125L574.3094 91.55L573.2469 91.55ZM580.3094 89.26875L581.34064 89.40938Q581.16876 90.47188 580.46564 91.08125Q579.7625 91.69063 578.7469 91.69063Q577.46564 91.69063 576.6844 90.8625Q575.91876 90.01875 575.91876 88.45625Q575.91876 87.45625 576.2469 86.70625Q576.59064 85.94063 577.2625 85.56563Q577.95 85.19063 578.7625 85.19063Q579.7625 85.19063 580.40314 85.70625Q581.0594 86.20625 581.2469 87.15938L580.21564 87.31563Q580.075 86.69063 579.7 86.37813Q579.325 86.05 578.79376 86.05Q577.9969 86.05 577.4969 86.62813Q576.9969 87.19063 576.9969 88.425Q576.9969 89.69063 577.48126 90.25313Q577.96564 90.81563 578.73126 90.81563Q579.35626 90.81563 579.7625 90.44063Q580.1844 90.06563 580.3094 89.26875Z" fill-rule="nonzero"/><path fill="#9e9e9e" d="M553.95 106.28438L555.0125 106.14375Q555.1844 107.03438 555.6219 107.44063Q556.0594 107.83125 556.6844 107.83125Q557.4344 107.83125 557.95 107.31563Q558.46564 106.8 558.46564 106.03438Q558.46564 105.31563 557.98126 104.84688Q557.5125 104.3625 556.77814 104.3625Q556.48126 104.3625 556.02814 104.4875L556.15314 103.55Q556.2625 103.56563 556.325 103.56563Q556.9969 103.56563 557.52814 103.22188Q558.075 102.8625 558.075 102.12813Q558.075 101.55 557.6844 101.175Q557.29376 100.78438 556.66876 100.78438Q556.0594 100.78438 555.6375 101.175Q555.23126 101.56563 555.1219 102.33125L554.0594 102.14375Q554.2469 101.09688 554.9344 100.51875Q555.6219 99.925 556.6375 99.925Q557.34064 99.925 557.9344 100.2375Q558.52814 100.53438 558.84064 101.05Q559.15314 101.56563 559.15314 102.15938Q559.15314 102.70625 558.85626 103.175Q558.5594 103.62813 557.98126 103.89375Q558.73126 104.06563 559.15314 104.62813Q559.575 105.175 559.575 106.01875Q559.575 107.14375 558.7469 107.925Q557.9344 108.70625 556.6844 108.70625Q555.5594 108.70625 554.8094 108.03438Q554.0594 107.34688 553.95 106.28438ZM561.54376 108.55L561.54376 107.34688L562.7469 107.34688L562.7469 108.55L561.54376 108.55ZM563.95 106.28438L565.0125 106.14375Q565.1844 107.03438 565.6219 107.44063Q566.0594 107.83125 566.6844 107.83125Q567.4344 107.83125 567.95 107.31563Q568.46564 106.8 568.46564 106.03438Q568.46564 105.31563 567.98126 104.84688Q567.5125 104.3625 566.77814 104.3625Q566.48126 104.3625 566.02814 104.4875L566.15314 103.55Q566.2625 103.56563 566.325 103.56563Q566.9969 103.56563 567.52814 103.22188Q568.075 102.8625 568.075 102.12813Q568.075 101.55 567.6844 101.175Q567.29376 100.78438 566.66876 100.78438Q566.0594 100.78438 565.6375 101.175Q565.23126 101.56563 565.1219 102.33125L564.0594 102.14375Q564.2469 101.09688 564.9344 100.51875Q565.6219 99.925 566.6375 99.925Q567.34064 99.925 567.9344 100.2375Q568.52814 100.53438 568.84064 101.05Q569.15314 101.56563 569.15314 102.15938Q569.15314 102.70625 568.85626 103.175Q568.5594 103.62813 567.98126 103.89375Q568.73126 104.06563 569.15314 104.62813Q569.575 105.175 569.575 106.01875Q569.575 107.14375 568.7469 107.925Q567.9344 108.70625 566.6844 108.70625Q565.5594 108.70625 564.8094 108.03438Q564.0594 107.34688 563.95 106.28438ZM571.15314 102.01875Q571.15314 101.09688 571.60626 100.45625Q572.075 99.81563 572.95 99.81563Q573.7625 99.81563 574.29376 100.39375Q574.825 100.97188 574.825 102.08125Q574.825 103.175 574.27814 103.76875Q573.7469 104.34688 572.96564 104.34688Q572.1844 104.34688 571.66876 103.76875Q571.15314 103.19063 571.15314 102.01875ZM572.98126 100.53438Q572.59064 100.53438 572.325 100.87813Q572.075 101.22188 572.075 102.12813Q572.075 102.95625 572.325 103.3Q572.59064 103.62813 572.98126 103.62813Q573.3875 103.62813 573.6375 103.28438Q573.90314 102.94063 573.90314 102.05Q573.90314 101.20625 573.6375 100.87813Q573.3719 100.53438 572.98126 100.53438ZM572.98126 108.8625L577.6844 99.81563L578.54376 99.81563L573.85626 108.8625L572.98126 108.8625ZM576.7 106.53438Q576.7 105.6125 577.15314 104.97188Q577.6219 104.33125 578.5125 104.33125Q579.325 104.33125 579.85626 104.90938Q580.3875 105.47188 580.3875 106.59688Q580.3875 107.69063 579.84064 108.28438Q579.3094 108.8625 578.5125 108.8625Q577.7469 108.8625 577.21564 108.28438Q576.7 107.70625 576.7 106.53438ZM578.54376 105.05Q578.1375 105.05 577.8719 105.39375Q577.6219 105.7375 577.6219 106.64375Q577.6219 107.45625 577.8875 107.8Q578.15314 108.14375 578.54376 108.14375Q578.9344 108.14375 579.2 107.8Q579.46564 107.45625 579.46564 106.55Q579.46564 105.72188 579.2 105.39375Q578.9344 105.05 578.54376 105.05Z" fill-rule="nonzero"/><path stroke="#757575" stroke-width="1.0" stroke-linecap="butt" d="M581.45 96.05L472.95 96.05L382.17798 49.847748" fill-rule="nonzero"/><path fill="#9e9e9e" d="M384.17798 49.847748C384.17798 48.743176 383.28253 47.847748 382.17798 47.847748C381.0734 47.847748 380.17798 48.743176 380.17798 49.847748C380.17798 50.952316 381.0734 51.847748 382.17798 51.847748C383.28253 51.847748 384.17798 50.952316 384.17798 49.847748" fill-rule="nonzero"/><path fill="#1a1a1a" d="M518.3719 122.55L518.3719 113.95625L521.6219 113.95625Q522.46564 113.95625 522.91876 114.03438Q523.5594 114.14375 523.98126 114.44063Q524.41876 114.7375 524.66876 115.26875Q524.9344 115.8 524.9344 116.44063Q524.9344 117.53438 524.23126 118.3Q523.54376 119.05 521.71564 119.05L519.5125 119.05L519.5125 122.55L518.3719 122.55ZM519.5125 118.05L521.73126 118.05Q522.84064 118.05 523.29376 117.64375Q523.7625 117.22188 523.7625 116.47188Q523.7625 115.94063 523.48126 115.56563Q523.21564 115.175 522.77814 115.05Q522.48126 114.97188 521.71564 114.97188L519.5125 114.97188L519.5125 118.05ZM525.85626 119.44063Q525.85626 117.70625 526.8094 116.87813Q527.60626 116.19063 528.7625 116.19063Q530.04376 116.19063 530.85626 117.03438Q531.6844 117.8625 531.6844 119.34688Q531.6844 120.55 531.325 121.2375Q530.96564 121.925 530.2625 122.31563Q529.575 122.69063 528.7625 122.69063Q527.46564 122.69063 526.65314 121.8625Q525.85626 121.01875 525.85626 119.44063ZM526.9344 119.44063Q526.9344 120.62813 527.45 121.22188Q527.98126 121.81563 528.7625 121.81563Q529.5594 121.81563 530.075 121.22188Q530.59064 120.62813 530.59064 119.40938Q530.59064 118.25313 530.0594 117.65938Q529.54376 117.06563 528.7625 117.06563Q527.98126 117.06563 527.45 117.65938Q526.9344 118.2375 526.9344 119.44063ZM533.23126 122.55L533.23126 116.33125L534.1844 116.33125L534.1844 117.26875Q534.54376 116.6125 534.84064 116.40938Q535.15314 116.19063 535.52814 116.19063Q536.0594 116.19063 536.60626 116.51875L536.2469 117.50313Q535.85626 117.26875 535.48126 117.26875Q535.1219 117.26875 534.84064 117.4875Q534.575 117.69063 534.46564 118.06563Q534.27814 118.62813 534.27814 119.28438L534.27814 122.55L533.23126 122.55ZM539.54376 121.6125L539.7 122.53438Q539.2469 122.62813 538.90314 122.62813Q538.325 122.62813 538.0125 122.45625Q537.7 122.26875 537.5594 121.97188Q537.4344 121.675 537.4344 120.72188L537.4344 117.14375L536.66876 117.14375L536.66876 116.33125L537.4344 116.33125L537.4344 114.78438L538.48126 114.15938L538.48126 116.33125L539.54376 116.33125L539.54376 117.14375L538.48126 117.14375L538.48126 120.78438Q538.48126 121.2375 538.52814 121.3625Q538.59064 121.4875 538.71564 121.56563Q538.84064 121.64375 539.075 121.64375Q539.2625 121.64375 539.54376 121.6125ZM544.325 122.55L544.325 121.62813Q543.59064 122.69063 542.34064 122.69063Q541.79376 122.69063 541.3094 122.4875Q540.84064 122.26875 540.60626 121.95625Q540.3719 121.62813 540.27814 121.15938Q540.21564 120.8625 540.21564 120.175L540.21564 116.33125L541.27814 116.33125L541.27814 119.78438Q541.27814 120.59688 541.34064 120.89375Q541.4344 121.3 541.7469 121.55Q542.075 121.78438 542.5594 121.78438Q543.02814 121.78438 543.4344 121.55Q543.85626 121.3 544.02814 120.87813Q544.21564 120.45625 544.21564 119.65938L544.21564 116.33125L545.2625 116.33125L545.2625 122.55L544.325 122.55ZM547.04376 123.06563L548.075 123.22188Q548.1375 123.69063 548.4344 123.90938Q548.825 124.20625 549.4969 124.20625Q550.23126 124.20625 550.6219 123.90938Q551.02814 123.6125 551.16876 123.09688Q551.2625 122.76875 551.2469 121.7375Q550.5594 122.55 549.52814 122.55Q548.2469 122.55 547.54376 121.62813Q546.84064 120.69063 546.84064 119.40938Q546.84064 118.51875 547.15314 117.76875Q547.48126 117.00313 548.09064 116.59688Q548.7 116.19063 549.52814 116.19063Q550.6375 116.19063 551.35626 117.08125L551.35626 116.33125L552.325 116.33125L552.325 121.70625Q552.325 123.15938 552.02814 123.76875Q551.73126 124.37813 551.09064 124.72188Q550.45 125.08125 549.5125 125.08125Q548.40314 125.08125 547.71564 124.58125Q547.02814 124.08125 547.04376 123.06563ZM547.91876 119.33125Q547.91876 120.55 548.40314 121.1125Q548.8875 121.675 549.6219 121.675Q550.35626 121.675 550.84064 121.1125Q551.34064 120.55 551.34064 119.3625Q551.34064 118.22188 550.825 117.64375Q550.325 117.06563 549.60626 117.06563Q548.90314 117.06563 548.40314 117.64375Q547.91876 118.20625 547.91876 119.33125ZM558.325 122.55L558.325 121.62813Q557.59064 122.69063 556.34064 122.69063Q555.79376 122.69063 555.3094 122.4875Q554.84064 122.26875 554.60626 121.95625Q554.3719 121.62813 554.27814 121.15938Q554.21564 120.8625 554.21564 120.175L554.21564 116.33125L555.27814 116.33125L555.27814 119.78438Q555.27814 120.59688 555.34064 120.89375Q555.4344 121.3 555.7469 121.55Q556.075 121.78438 556.5594 121.78438Q557.02814 121.78438 557.4344 121.55Q557.85626 121.3 558.02814 120.87813Q558.21564 120.45625 558.21564 119.65938L558.21564 116.33125L559.2625 116.33125L559.2625 122.55L558.325 122.55ZM565.4969 120.55L566.59064 120.675Q566.34064 121.62813 565.6375 122.15938Q564.9344 122.69063 563.85626 122.69063Q562.4969 122.69063 561.6844 121.84688Q560.8875 121.00313 560.8875 119.4875Q560.8875 117.925 561.7 117.06563Q562.5125 116.19063 563.79376 116.19063Q565.04376 116.19063 565.825 117.03438Q566.6219 117.87813 566.6219 119.425Q566.6219 119.51875 566.6219 119.70625L561.98126 119.70625Q562.04376 120.7375 562.5594 121.28438Q563.075 121.81563 563.85626 121.81563Q564.4344 121.81563 564.84064 121.51875Q565.2625 121.20625 565.4969 120.55ZM562.04376 118.84688L565.5125 118.84688Q565.45 118.05 565.1219 117.65938Q564.60626 117.05 563.8094 117.05Q563.075 117.05 562.575 117.53438Q562.09064 118.01875 562.04376 118.84688ZM567.825 120.69063L568.85626 120.53438Q568.95 121.15938 569.34064 121.4875Q569.7469 121.81563 570.48126 121.81563Q571.2 121.81563 571.54376 121.53438Q571.90314 121.2375 571.90314 120.83125Q571.90314 120.47188 571.59064 120.26875Q571.3719 120.12813 570.5125 119.90938Q569.35626 119.6125 568.90314 119.40938Q568.46564 119.19063 568.23126 118.81563Q567.9969 118.44063 567.9969 117.97188Q567.9969 117.56563 568.1844 117.20625Q568.3719 116.84688 568.7 116.6125Q568.95 116.44063 569.3719 116.31563Q569.79376 116.19063 570.29376 116.19063Q571.0125 116.19063 571.5594 116.40938Q572.1219 116.6125 572.3875 116.97188Q572.65314 117.33125 572.7469 117.925L571.71564 118.06563Q571.65314 117.59688 571.3094 117.33125Q570.98126 117.05 570.35626 117.05Q569.6375 117.05 569.325 117.3Q569.0125 117.53438 569.0125 117.8625Q569.0125 118.06563 569.1375 118.22188Q569.27814 118.39375 569.54376 118.50313Q569.7 118.56563 570.48126 118.76875Q571.60626 119.08125 572.04376 119.26875Q572.48126 119.45625 572.73126 119.81563Q572.98126 120.175 572.98126 120.72188Q572.98126 121.25313 572.66876 121.72188Q572.3719 122.175 571.79376 122.44063Q571.21564 122.69063 570.48126 122.69063Q569.2625 122.69063 568.6219 122.19063Q567.9969 121.675 567.825 120.69063ZM579.4969 120.55L580.59064 120.675Q580.34064 121.62813 579.6375 122.15938Q578.9344 122.69063 577.85626 122.69063Q576.4969 122.69063 575.6844 121.84688Q574.8875 121.00313 574.8875 119.4875Q574.8875 117.925 575.7 117.06563Q576.5125 116.19063 577.79376 116.19063Q579.04376 116.19063 579.825 117.03438Q580.6219 117.87813 580.6219 119.425Q580.6219 119.51875 580.6219 119.70625L575.98126 119.70625Q576.04376 120.7375 576.5594 121.28438Q577.075 121.81563 577.85626 121.81563Q578.4344 121.81563 578.84064 121.51875Q579.2625 121.20625 579.4969 120.55ZM576.04376 118.84688L579.5125 118.84688Q579.45 118.05 579.1219 117.65938Q578.60626 117.05 577.8094 117.05Q577.075 117.05 576.575 117.53438Q576.09064 118.01875 576.04376 118.84688Z" fill-rule="nonzero"/><path fill="#9e9e9e" d="M553.95 137.3L555.0594 137.20625Q555.1844 138.01875 555.6219 138.425Q556.075 138.83125 556.71564 138.83125Q557.46564 138.83125 557.9969 138.25313Q558.52814 137.675 558.52814 136.7375Q558.52814 135.83125 558.0125 135.31563Q557.5125 134.78438 556.6844 134.78438Q556.1844 134.78438 555.7625 135.01875Q555.35626 135.25313 555.1219 135.6125L554.1375 135.4875L554.96564 131.08125L559.2469 131.08125L559.2469 132.08125L555.8094 132.08125L555.35626 134.39375Q556.1219 133.84688 556.96564 133.84688Q558.09064 133.84688 558.85626 134.62813Q559.6375 135.40938 559.6375 136.64375Q559.6375 137.8 558.96564 138.65938Q558.1375 139.69063 556.71564 139.69063Q555.54376 139.69063 554.79376 139.03438Q554.0594 138.37813 553.95 137.3ZM561.54376 139.55L561.54376 138.34688L562.7469 138.34688L562.7469 139.55L561.54376 139.55ZM563.95 135.31563Q563.95 133.78438 564.2625 132.8625Q564.575 131.925 565.1844 131.425Q565.8094 130.925 566.7469 130.925Q567.4344 130.925 567.95 131.20625Q568.48126 131.4875 568.825 132.01875Q569.16876 132.53438 569.35626 133.28438Q569.54376 134.03438 569.54376 135.31563Q569.54376 136.83125 569.23126 137.75313Q568.9344 138.675 568.3094 139.19063Q567.7 139.69063 566.7469 139.69063Q565.5125 139.69063 564.79376 138.8Q563.95 137.7375 563.95 135.31563ZM565.02814 135.31563Q565.02814 137.425 565.52814 138.12813Q566.02814 138.83125 566.7469 138.83125Q567.48126 138.83125 567.96564 138.12813Q568.46564 137.425 568.46564 135.31563Q568.46564 133.19063 567.96564 132.50313Q567.48126 131.8 566.73126 131.8Q566.0125 131.8 565.575 132.40938Q565.02814 133.19063 565.02814 135.31563ZM571.15314 133.01875Q571.15314 132.09688 571.60626 131.45625Q572.075 130.81563 572.95 130.81563Q573.7625 130.81563 574.29376 131.39375Q574.825 131.97188 574.825 133.08125Q574.825 134.175 574.27814 134.76875Q573.7469 135.34688 572.96564 135.34688Q572.1844 135.34688 571.66876 134.76875Q571.15314 134.19063 571.15314 133.01875ZM572.98126 131.53438Q572.59064 131.53438 572.325 131.87813Q572.075 132.22188 572.075 133.12813Q572.075 133.95625 572.325 134.3Q572.59064 134.62813 572.98126 134.62813Q573.3875 134.62813 573.6375 134.28438Q573.90314 133.94063 573.90314 133.05Q573.90314 132.20625 573.6375 131.87813Q573.3719 131.53438 572.98126 131.53438ZM572.98126 139.8625L577.6844 130.81563L578.54376 130.81563L573.85626 139.8625L572.98126 139.8625ZM576.7 137.53438Q576.7 136.6125 577.15314 135.97188Q577.6219 135.33125 578.5125 135.33125Q579.325 135.33125 579.85626 135.90938Q580.3875 136.47188 580.3875 137.59688Q580.3875 138.69063 579.84064 139.28438Q579.3094 139.8625 578.5125 139.8625Q577.7469 139.8625 577.21564 139.28438Q576.7 138.70625 576.7 137.53438ZM578.54376 136.05Q578.1375 136.05 577.8719 136.39375Q577.6219 136.7375 577.6219 137.64375Q577.6219 138.45625 577.8875 138.8Q578.15314 139.14375 578.54376 139.14375Q578.9344 139.14375 579.2 138.8Q579.46564 138.45625 579.46564 137.55Q579.46564 136.72188 579.2 136.39375Q578.9344 136.05 578.54376 136.05Z" fill-rule="nonzero"/><path stroke="#757575" stroke-width="1.0" stroke-linecap="butt" d="M581.45 127.05L472.95 127.05L414.335 75.580666" fill-rule="nonzero"/><path fill="#9e9e9e" d="M416.335 75.580666C416.335 74.4761 415.43958 73.580666 414.335 73.580666C413.23044 73.580666 412.335 74.4761 412.335 75.580666C412.335 76.685234 413.23044 77.580666 414.335 77.580666C415.43958 77.580666 416.335 76.685234 416.335 75.580666" fill-rule="nonzero"/><path fill="#1a1a1a" d="M535.9969 150.78438L537.0594 150.69063Q537.1375 151.34688 537.41876 151.75313Q537.7 152.15938 538.27814 152.425Q538.8719 152.675 539.60626 152.675Q540.2469 152.675 540.7469 152.4875Q541.2469 152.28438 541.48126 151.95625Q541.73126 151.6125 541.73126 151.22188Q541.73126 150.81563 541.4969 150.51875Q541.2625 150.20625 540.73126 150.00313Q540.3719 149.8625 539.1844 149.58125Q538.0125 149.3 537.54376 149.05Q536.91876 148.72188 536.6219 148.25313Q536.325 147.76875 536.325 147.175Q536.325 146.53438 536.6844 145.97188Q537.0594 145.39375 537.7625 145.1125Q538.48126 144.81563 539.34064 144.81563Q540.29376 144.81563 541.02814 145.12813Q541.7625 145.425 542.15314 146.03438Q542.54376 146.62813 542.575 147.37813L541.48126 147.45625Q541.3875 146.64375 540.8719 146.2375Q540.3719 145.81563 539.3875 145.81563Q538.35626 145.81563 537.8875 146.19063Q537.41876 146.56563 537.41876 147.09688Q537.41876 147.56563 537.7469 147.8625Q538.075 148.15938 539.45 148.47188Q540.84064 148.78438 541.35626 149.01875Q542.10626 149.37813 542.46564 149.90938Q542.825 150.425 542.825 151.12813Q542.825 151.81563 542.4344 152.425Q542.04376 153.01875 541.3094 153.3625Q540.575 153.69063 539.65314 153.69063Q538.48126 153.69063 537.6844 153.3625Q536.90314 153.01875 536.45 152.33125Q536.0125 151.64375 535.9969 150.78438ZM544.2469 155.94063L544.2469 147.33125L545.2 147.33125L545.2 148.12813Q545.54376 147.65938 545.96564 147.425Q546.40314 147.19063 547.0125 147.19063Q547.8094 147.19063 548.41876 147.59688Q549.02814 148.00313 549.325 148.75313Q549.6375 149.50313 549.6375 150.39375Q549.6375 151.34688 549.29376 152.1125Q548.96564 152.87813 548.3094 153.28438Q547.65314 153.69063 546.9344 153.69063Q546.40314 153.69063 545.98126 153.47188Q545.5594 153.2375 545.29376 152.90938L545.29376 155.94063L544.2469 155.94063ZM545.2 150.47188Q545.2 151.675 545.6844 152.25313Q546.16876 152.81563 546.85626 152.81563Q547.5594 152.81563 548.0594 152.22188Q548.5594 151.62813 548.5594 150.37813Q548.5594 149.19063 548.075 148.6125Q547.59064 148.01875 546.90314 148.01875Q546.23126 148.01875 545.71564 148.64375Q545.2 149.26875 545.2 150.47188ZM555.3094 152.78438Q554.71564 153.28438 554.16876 153.4875Q553.6375 153.69063 553.0125 153.69063Q551.98126 153.69063 551.4344 153.19063Q550.8875 152.69063 550.8875 151.90938Q550.8875 151.45625 551.09064 151.08125Q551.29376 150.69063 551.6375 150.47188Q551.98126 150.2375 552.40314 150.12813Q552.7 150.03438 553.34064 149.95625Q554.60626 149.81563 555.21564 149.59688Q555.21564 149.37813 555.21564 149.33125Q555.21564 148.675 554.91876 148.40938Q554.5125 148.06563 553.71564 148.06563Q552.98126 148.06563 552.6219 148.33125Q552.2625 148.58125 552.09064 149.2375L551.0594 149.09688Q551.2 148.44063 551.52814 148.03438Q551.85626 147.62813 552.46564 147.40938Q553.075 147.19063 553.8719 147.19063Q554.66876 147.19063 555.16876 147.37813Q555.66876 147.56563 555.90314 147.84688Q556.1375 148.12813 556.23126 148.56563Q556.27814 148.83125 556.27814 149.53438L556.27814 150.94063Q556.27814 152.40938 556.34064 152.8Q556.41876 153.19063 556.6219 153.55L555.5125 153.55Q555.35626 153.22188 555.3094 152.78438ZM555.21564 150.425Q554.6375 150.65938 553.4969 150.83125Q552.84064 150.925 552.575 151.05Q552.3094 151.15938 552.15314 151.37813Q552.0125 151.59688 552.0125 151.87813Q552.0125 152.3 552.325 152.58125Q552.65314 152.8625 553.2625 152.8625Q553.8719 152.8625 554.34064 152.59688Q554.825 152.33125 555.04376 151.8625Q555.21564 151.50313 555.21564 150.81563L555.21564 150.425ZM558.2469 153.55L558.2469 147.33125L559.1844 147.33125L559.1844 148.20625Q559.8719 147.19063 561.16876 147.19063Q561.73126 147.19063 562.2 147.39375Q562.6844 147.59688 562.91876 147.925Q563.15314 148.25313 563.2469 148.69063Q563.29376 148.9875 563.29376 149.72188L563.29376 153.55L562.2469 153.55L562.2469 149.76875Q562.2469 149.1125 562.1219 148.8Q561.9969 148.4875 561.6844 148.3Q561.3719 148.09688 560.95 148.09688Q560.27814 148.09688 559.77814 148.53438Q559.29376 148.95625 559.29376 150.14375L559.29376 153.55L558.2469 153.55ZM565.2469 146.175L565.2469 144.95625L566.3094 144.95625L566.3094 146.175L565.2469 146.175ZM565.2469 153.55L565.2469 147.33125L566.3094 147.33125L566.3094 153.55L565.2469 153.55ZM567.825 151.69063L568.85626 151.53438Q568.95 152.15938 569.34064 152.4875Q569.7469 152.81563 570.48126 152.81563Q571.2 152.81563 571.54376 152.53438Q571.90314 152.2375 571.90314 151.83125Q571.90314 151.47188 571.59064 151.26875Q571.3719 151.12813 570.5125 150.90938Q569.35626 150.6125 568.90314 150.40938Q568.46564 150.19063 568.23126 149.81563Q567.9969 149.44063 567.9969 148.97188Q567.9969 148.56563 568.1844 148.20625Q568.3719 147.84688 568.7 147.6125Q568.95 147.44063 569.3719 147.31563Q569.79376 147.19063 570.29376 147.19063Q571.0125 147.19063 571.5594 147.40938Q572.1219 147.6125 572.3875 147.97188Q572.65314 148.33125 572.7469 148.925L571.71564 149.06563Q571.65314 148.59688 571.3094 148.33125Q570.98126 148.05 570.35626 148.05Q569.6375 148.05 569.325 148.3Q569.0125 148.53438 569.0125 148.8625Q569.0125 149.06563 569.1375 149.22188Q569.27814 149.39375 569.54376 149.50313Q569.7 149.56563 570.48126 149.76875Q571.60626 150.08125 572.04376 150.26875Q572.48126 150.45625 572.73126 150.81563Q572.98126 151.175 572.98126 151.72188Q572.98126 152.25313 572.66876 152.72188Q572.3719 153.175 571.79376 153.44063Q571.21564 153.69063 570.48126 153.69063Q569.2625 153.69063 568.6219 153.19063Q567.9969 152.675 567.825 151.69063ZM575.2469 153.55L575.2469 144.95625L576.29376 144.95625L576.29376 148.03438Q577.02814 147.19063 578.15314 147.19063Q578.85626 147.19063 579.35626 147.47188Q579.8719 147.7375 580.09064 148.22188Q580.3094 148.69063 580.3094 149.6125L580.3094 153.55L579.2625 153.55L579.2625 149.6125Q579.2625 148.81563 578.91876 148.45625Q578.575 148.09688 577.95 148.09688Q577.48126 148.09688 577.0594 148.34688Q576.65314 148.58125 576.46564 149.00313Q576.29376 149.40938 576.29376 150.14375L576.29376 153.55L575.2469 153.55Z" fill-rule="nonzero"/><path fill="#9e9e9e" d="M550.91876 170.55L549.8719 170.55L549.8719 163.83125Q549.48126 164.19063 548.85626 164.56563Q548.2469 164.925 547.7625 165.09688L547.7625 164.08125Q548.6375 163.65938 549.29376 163.08125Q549.96564 162.4875 550.2469 161.925L550.91876 161.925L550.91876 170.55ZM553.95 166.31563Q553.95 164.78438 554.2625 163.8625Q554.575 162.925 555.1844 162.425Q555.8094 161.925 556.7469 161.925Q557.4344 161.925 557.95 162.20625Q558.48126 162.4875 558.825 163.01875Q559.16876 163.53438 559.35626 164.28438Q559.54376 165.03438 559.54376 166.31563Q559.54376 167.83125 559.23126 168.75313Q558.9344 169.675 558.3094 170.19063Q557.7 170.69063 556.7469 170.69063Q555.5125 170.69063 554.79376 169.8Q553.95 168.7375 553.95 166.31563ZM555.02814 166.31563Q555.02814 168.425 555.52814 169.12813Q556.02814 169.83125 556.7469 169.83125Q557.48126 169.83125 557.96564 169.12813Q558.46564 168.425 558.46564 166.31563Q558.46564 164.19063 557.96564 163.50313Q557.48126 162.8 556.73126 162.8Q556.0125 162.8 555.575 163.40938Q555.02814 164.19063 555.02814 166.31563ZM561.54376 170.55L561.54376 169.34688L562.7469 169.34688L562.7469 170.55L561.54376 170.55ZM564.0125 163.08125L564.0125 162.06563L569.575 162.06563L569.575 162.89375Q568.7625 163.76875 567.95 165.22188Q567.15314 166.65938 566.71564 168.19063Q566.3875 169.26875 566.3094 170.55L565.21564 170.55Q565.23126 169.53438 565.60626 168.09688Q565.9969 166.65938 566.7 165.33125Q567.41876 164.00313 568.23126 163.08125L564.0125 163.08125ZM571.15314 164.01875Q571.15314 163.09688 571.60626 162.45625Q572.075 161.81563 572.95 161.81563Q573.7625 161.81563 574.29376 162.39375Q574.825 162.97188 574.825 164.08125Q574.825 165.175 574.27814 165.76875Q573.7469 166.34688 572.96564 166.34688Q572.1844 166.34688 571.66876 165.76875Q571.15314 165.19063 571.15314 164.01875ZM572.98126 162.53438Q572.59064 162.53438 572.325 162.87813Q572.075 163.22188 572.075 164.12813Q572.075 164.95625 572.325 165.3Q572.59064 165.62813 572.98126 165.62813Q573.3875 165.62813 573.6375 165.28438Q573.90314 164.94063 573.90314 164.05Q573.90314 163.20625 573.6375 162.87813Q573.3719 162.53438 572.98126 162.53438ZM572.98126 170.8625L577.6844 161.81563L578.54376 161.81563L573.85626 170.8625L572.98126 170.8625ZM576.7 168.53438Q576.7 167.6125 577.15314 166.97188Q577.6219 166.33125 578.5125 166.33125Q579.325 166.33125 579.85626 166.90938Q580.3875 167.47188 580.3875 168.59688Q580.3875 169.69063 579.84064 170.28438Q579.3094 170.8625 578.5125 170.8625Q577.7469 170.8625 577.21564 170.28438Q576.7 169.70625 576.7 168.53438ZM578.54376 167.05Q578.1375 167.05 577.8719 167.39375Q577.6219 167.7375 577.6219 168.64375Q577.6219 169.45625 577.8875 169.8Q578.15314 170.14375 578.54376 170.14375Q578.9344 170.14375 579.2 169.8Q579.46564 169.45625 579.46564 168.55Q579.46564 167.72188 579.2 167.39375Q578.9344 167.05 578.54376 167.05Z" fill-rule="nonzero"/><path stroke="#757575" stroke-width="1.0" stroke-linecap="butt" d="M581.45 158.05L472.95 158.05L452.72372 142.71893" fill-rule="nonzero"/><path fill="#9e9e9e" d="M454.72372 142.71893C454.72372 141.61436 453.82828 140.71893 452.72372 140.71893C451.61914 140.71893 450.72372 141.61436 450.72372 142.71893C450.72372 143.8235 451.61914 144.71893 452.72372 144.71893C453.82828 144.71893 454.72372 143.8235 454.72372 142.71893" fill-rule="nonzero"/><path fill="#1a1a1a" d="M558.5125 249.87976L559.6375 250.17664Q559.27814 251.56726 558.35626 252.30164Q557.4344 253.03601 556.09064 253.03601Q554.7 253.03601 553.825 252.47351Q552.95 251.91101 552.4969 250.84851Q552.04376 249.77039 552.04376 248.53601Q552.04376 247.19226 552.5594 246.19226Q553.075 245.19226 554.0125 244.67664Q554.96564 244.16101 556.10626 244.16101Q557.3875 244.16101 558.2625 244.81726Q559.15314 245.47351 559.4969 246.66101L558.3719 246.92664Q558.075 245.98914 557.4969 245.56726Q556.9344 245.12976 556.075 245.12976Q555.09064 245.12976 554.41876 245.61414Q553.7625 246.08289 553.48126 246.87976Q553.21564 247.67664 553.21564 248.53601Q553.21564 249.62976 553.52814 250.44226Q553.85626 251.25476 554.52814 251.66101Q555.2 252.06726 555.9969 252.06726Q556.95 252.06726 557.60626 251.52039Q558.27814 250.97351 558.5125 249.87976ZM560.85626 249.78601Q560.85626 248.05164 561.8094 247.22351Q562.60626 246.53601 563.7625 246.53601Q565.04376 246.53601 565.85626 247.37976Q566.6844 248.20789 566.6844 249.69226Q566.6844 250.89539 566.325 251.58289Q565.96564 252.27039 565.2625 252.66101Q564.575 253.03601 563.7625 253.03601Q562.46564 253.03601 561.65314 252.20789Q560.85626 251.36414 560.85626 249.78601ZM561.9344 249.78601Q561.9344 250.97351 562.45 251.56726Q562.98126 252.16101 563.7625 252.16101Q564.5594 252.16101 565.075 251.56726Q565.59064 250.97351 565.59064 249.75476Q565.59064 248.59851 565.0594 248.00476Q564.54376 247.41101 563.7625 247.41101Q562.98126 247.41101 562.45 248.00476Q561.9344 248.58289 561.9344 249.78601ZM572.27814 252.89539L572.27814 252.11414Q571.6844 253.03601 570.54376 253.03601Q569.79376 253.03601 569.16876 252.62976Q568.54376 252.20789 568.2 251.47351Q567.85626 250.73914 567.85626 249.78601Q567.85626 248.86414 568.16876 248.09851Q568.48126 247.33289 569.10626 246.94226Q569.73126 246.53601 570.4969 246.53601Q571.0594 246.53601 571.4969 246.77039Q571.9344 247.00476 572.21564 247.37976L572.21564 244.30164L573.2625 244.30164L573.2625 252.89539L572.27814 252.89539ZM568.95 249.78601Q568.95 250.98914 569.45 251.58289Q569.95 252.16101 570.6375 252.16101Q571.325 252.16101 571.8094 251.59851Q572.29376 251.03601 572.29376 249.87976Q572.29376 248.59851 571.79376 248.00476Q571.3094 247.41101 570.59064 247.41101Q569.8875 247.41101 569.41876 247.98914Q568.95 248.55164 568.95 249.78601ZM579.4969 250.89539L580.59064 251.02039Q580.34064 251.97351 579.6375 252.50476Q578.9344 253.03601 577.85626 253.03601Q576.4969 253.03601 575.6844 252.19226Q574.8875 251.34851 574.8875 249.83289Q574.8875 248.27039 575.7 247.41101Q576.5125 246.53601 577.79376 246.53601Q579.04376 246.53601 579.825 247.37976Q580.6219 248.22351 580.6219 249.77039Q580.6219 249.86414 580.6219 250.05164L575.98126 250.05164Q576.04376 251.08289 576.5594 251.62976Q577.075 252.16101 577.85626 252.16101Q578.4344 252.16101 578.84064 251.86414Q579.2625 251.55164 579.4969 250.89539ZM576.04376 249.19226L579.5125 249.19226Q579.45 248.39539 579.1219 248.00476Q578.60626 247.39539 577.8094 247.39539Q577.075 247.39539 576.575 247.87976Q576.09064 248.36414 576.04376 249.19226Z" fill-rule="nonzero"/><path fill="#9e9e9e" d="M550.91876 269.8954L549.8719 269.8954L549.8719 263.17664Q549.48126 263.536 548.85626 263.911Q548.2469 264.2704 547.7625 264.44226L547.7625 263.42664Q548.6375 263.00476 549.29376 262.42664Q549.96564 261.8329 550.2469 261.2704L550.91876 261.2704L550.91876 269.8954ZM553.95 267.62976L555.0125 267.48914Q555.1844 268.37976 555.6219 268.786Q556.0594 269.17664 556.6844 269.17664Q557.4344 269.17664 557.95 268.661Q558.46564 268.1454 558.46564 267.37976Q558.46564 266.661 557.98126 266.19226Q557.5125 265.7079 556.77814 265.7079Q556.48126 265.7079 556.02814 265.8329L556.15314 264.8954Q556.2625 264.911 556.325 264.911Q556.9969 264.911 557.52814 264.56726Q558.075 264.2079 558.075 263.4735Q558.075 262.8954 557.6844 262.5204Q557.29376 262.12976 556.66876 262.12976Q556.0594 262.12976 555.6375 262.5204Q555.23126 262.911 555.1219 263.67664L554.0594 263.48914Q554.2469 262.44226 554.9344 261.86414Q555.6219 261.2704 556.6375 261.2704Q557.34064 261.2704 557.9344 261.5829Q558.52814 261.87976 558.84064 262.3954Q559.15314 262.911 559.15314 263.50476Q559.15314 264.05164 558.85626 264.5204Q558.5594 264.9735 557.98126 265.23914Q558.73126 265.411 559.15314 265.9735Q559.575 266.5204 559.575 267.36414Q559.575 268.48914 558.7469 269.2704Q557.9344 270.05164 556.6844 270.05164Q555.5594 270.05164 554.8094 269.37976Q554.0594 268.69226 553.95 267.62976ZM561.54376 269.8954L561.54376 268.69226L562.7469 268.69226L562.7469 269.8954L561.54376 269.8954ZM563.95 265.661Q563.95 264.12976 564.2625 263.2079Q564.575 262.2704 565.1844 261.7704Q565.8094 261.2704 566.7469 261.2704Q567.4344 261.2704 567.95 261.55164Q568.48126 261.8329 568.825 262.36414Q569.16876 262.87976 569.35626 263.62976Q569.54376 264.37976 569.54376 265.661Q569.54376 267.17664 569.23126 268.0985Q568.9344 269.0204 568.3094 269.536Q567.7 270.036 566.7469 270.036Q565.5125 270.036 564.79376 269.1454Q563.95 268.0829 563.95 265.661ZM565.02814 265.661Q565.02814 267.7704 565.52814 268.4735Q566.02814 269.17664 566.7469 269.17664Q567.48126 269.17664 567.96564 268.4735Q568.46564 267.7704 568.46564 265.661Q568.46564 263.536 567.96564 262.8485Q567.48126 262.1454 566.73126 262.1454Q566.0125 262.1454 565.575 262.75476Q565.02814 263.536 565.02814 265.661ZM571.15314 263.36414Q571.15314 262.44226 571.60626 261.80164Q572.075 261.161 572.95 261.161Q573.7625 261.161 574.29376 261.73914Q574.825 262.31726 574.825 263.42664Q574.825 264.5204 574.27814 265.11414Q573.7469 265.69226 572.96564 265.69226Q572.1844 265.69226 571.66876 265.11414Q571.15314 264.536 571.15314 263.36414ZM572.98126 261.87976Q572.59064 261.87976 572.325 262.2235Q572.075 262.56726 572.075 263.4735Q572.075 264.30164 572.325 264.6454Q572.59064 264.9735 572.98126 264.9735Q573.3875 264.9735 573.6375 264.62976Q573.90314 264.286 573.90314 263.3954Q573.90314 262.55164 573.6375 262.2235Q573.3719 261.87976 572.98126 261.87976ZM572.98126 270.2079L577.6844 261.161L578.54376 261.161L573.85626 270.2079L572.98126 270.2079ZM576.7 267.87976Q576.7 266.9579 577.15314 266.31726Q577.6219 265.67664 578.5125 265.67664Q579.325 265.67664 579.85626 266.25476Q580.3875 266.81726 580.3875 267.94226Q580.3875 269.036 579.84064 269.62976Q579.3094 270.2079 578.5125 270.2079Q577.7469 270.2079 577.21564 269.62976Q576.7 269.05164 576.7 267.87976ZM578.54376 266.3954Q578.1375 266.3954 577.8719 266.73914Q577.6219 267.0829 577.6219 267.98914Q577.6219 268.80164 577.8875 269.1454Q578.15314 269.48914 578.54376 269.48914Q578.9344 269.48914 579.2 269.1454Q579.46564 268.80164 579.46564 267.8954Q579.46564 267.06726 579.2 266.73914Q578.9344 266.3954 578.54376 266.3954Z" fill-rule="nonzero"/><path stroke="#757575" stroke-width="1.0" stroke-linecap="butt" d="M581.45 257.3954L472.95 257.3954L441.37115 257.3954" fill-rule="nonzero"/><path fill="#9e9e9e" d="M443.37115 257.3954C443.37115 256.2908 442.47574 255.39539 441.37115 255.39539C440.2666 255.39539 439.37115 256.2908 439.37115 257.3954C439.37115 258.49994 440.2666 259.3954 441.37115 259.3954C442.47574 259.3954 443.37115 258.49994 443.37115 257.3954" fill-rule="nonzero"/><path fill="#1a1a1a" d="M544.4344 332.45L544.4344 323.85626L550.23126 323.85626L550.23126 324.8719L545.575 324.8719L545.575 327.52814L549.60626 327.52814L549.60626 328.54376L545.575 328.54376L545.575 332.45L544.4344 332.45ZM551.23126 332.45L551.23126 326.23126L552.1844 326.23126L552.1844 327.16876Q552.54376 326.5125 552.84064 326.3094Q553.15314 326.09064 553.52814 326.09064Q554.0594 326.09064 554.60626 326.41876L554.2469 327.40314Q553.85626 327.16876 553.48126 327.16876Q553.1219 327.16876 552.84064 327.3875Q552.575 327.59064 552.46564 327.96564Q552.27814 328.52814 552.27814 329.1844L552.27814 332.45L551.23126 332.45ZM559.4969 330.45L560.59064 330.575Q560.34064 331.52814 559.6375 332.0594Q558.9344 332.59064 557.85626 332.59064Q556.4969 332.59064 555.6844 331.7469Q554.8875 330.90314 554.8875 329.3875Q554.8875 327.825 555.7 326.96564Q556.5125 326.09064 557.79376 326.09064Q559.04376 326.09064 559.825 326.9344Q560.6219 327.77814 560.6219 329.325Q560.6219 329.41876 560.6219 329.60626L555.98126 329.60626Q556.04376 330.6375 556.5594 331.1844Q557.075 331.71564 557.85626 331.71564Q558.4344 331.71564 558.84064 331.41876Q559.2625 331.10626 559.4969 330.45ZM556.04376 328.7469L559.5125 328.7469Q559.45 327.95 559.1219 327.5594Q558.60626 326.95 557.8094 326.95Q557.075 326.95 556.575 327.4344Q556.09064 327.91876 556.04376 328.7469ZM562.2469 332.45L562.2469 326.23126L563.1844 326.23126L563.1844 327.10626Q563.8719 326.09064 565.16876 326.09064Q565.73126 326.09064 566.2 326.29376Q566.6844 326.4969 566.91876 326.825Q567.15314 327.15314 567.2469 327.59064Q567.29376 327.8875 567.29376 328.6219L567.29376 332.45L566.2469 332.45L566.2469 328.66876Q566.2469 328.0125 566.1219 327.7Q565.9969 327.3875 565.6844 327.2Q565.3719 326.9969 564.95 326.9969Q564.27814 326.9969 563.77814 327.4344Q563.29376 327.85626 563.29376 329.04376L563.29376 332.45L562.2469 332.45ZM573.3094 330.16876L574.34064 330.3094Q574.16876 331.3719 573.46564 331.98126Q572.7625 332.59064 571.7469 332.59064Q570.46564 332.59064 569.6844 331.7625Q568.91876 330.91876 568.91876 329.35626Q568.91876 328.35626 569.2469 327.60626Q569.59064 326.84064 570.2625 326.46564Q570.95 326.09064 571.7625 326.09064Q572.7625 326.09064 573.40314 326.60626Q574.0594 327.10626 574.2469 328.0594L573.21564 328.21564Q573.075 327.59064 572.7 327.27814Q572.325 326.95 571.79376 326.95Q570.9969 326.95 570.4969 327.52814Q569.9969 328.09064 569.9969 329.325Q569.9969 330.59064 570.48126 331.15314Q570.96564 331.71564 571.73126 331.71564Q572.35626 331.71564 572.7625 331.34064Q573.1844 330.96564 573.3094 330.16876ZM575.2469 332.45L575.2469 323.85626L576.29376 323.85626L576.29376 326.9344Q577.02814 326.09064 578.15314 326.09064Q578.85626 326.09064 579.35626 326.3719Q579.8719 326.6375 580.09064 327.1219Q580.3094 327.59064 580.3094 328.5125L580.3094 332.45L579.2625 332.45L579.2625 328.5125Q579.2625 327.71564 578.91876 327.35626Q578.575 326.9969 577.95 326.9969Q577.48126 326.9969 577.0594 327.2469Q576.65314 327.48126 576.46564 327.90314Q576.29376 328.3094 576.29376 329.04376L576.29376 332.45L575.2469 332.45Z" fill-rule="nonzero"/><path fill="#9e9e9e" d="M550.91876 349.45L549.8719 349.45L549.8719 342.73126Q549.48126 343.09064 548.85626 343.46564Q548.2469 343.825 547.7625 343.9969L547.7625 342.98126Q548.6375 342.5594 549.29376 341.98126Q549.96564 341.3875 550.2469 340.825L550.91876 340.825L550.91876 349.45ZM553.95 347.1844L555.0125 347.04376Q555.1844 347.9344 555.6219 348.34064Q556.0594 348.73126 556.6844 348.73126Q557.4344 348.73126 557.95 348.21564Q558.46564 347.7 558.46564 346.9344Q558.46564 346.21564 557.98126 345.7469Q557.5125 345.2625 556.77814 345.2625Q556.48126 345.2625 556.02814 345.3875L556.15314 344.45Q556.2625 344.46564 556.325 344.46564Q556.9969 344.46564 557.52814 344.1219Q558.075 343.7625 558.075 343.02814Q558.075 342.45 557.6844 342.075Q557.29376 341.6844 556.66876 341.6844Q556.0594 341.6844 555.6375 342.075Q555.23126 342.46564 555.1219 343.23126L554.0594 343.04376Q554.2469 341.9969 554.9344 341.41876Q555.6219 340.825 556.6375 340.825Q557.34064 340.825 557.9344 341.1375Q558.52814 341.4344 558.84064 341.95Q559.15314 342.46564 559.15314 343.0594Q559.15314 343.60626 558.85626 344.075Q558.5594 344.52814 557.98126 344.79376Q558.73126 344.96564 559.15314 345.52814Q559.575 346.075 559.575 346.91876Q559.575 348.04376 558.7469 348.825Q557.9344 349.60626 556.6844 349.60626Q555.5594 349.60626 554.8094 348.9344Q554.0594 348.2469 553.95 347.1844ZM561.54376 349.45L561.54376 348.2469L562.7469 348.2469L562.7469 349.45L561.54376 349.45ZM567.91876 349.45L566.8719 349.45L566.8719 342.73126Q566.48126 343.09064 565.85626 343.46564Q565.2469 343.825 564.7625 343.9969L564.7625 342.98126Q565.6375 342.5594 566.29376 341.98126Q566.96564 341.3875 567.2469 340.825L567.91876 340.825L567.91876 349.45ZM571.15314 342.91876Q571.15314 341.9969 571.60626 341.35626Q572.075 340.71564 572.95 340.71564Q573.7625 340.71564 574.29376 341.29376Q574.825 341.8719 574.825 342.98126Q574.825 344.075 574.27814 344.66876Q573.7469 345.2469 572.96564 345.2469Q572.1844 345.2469 571.66876 344.66876Q571.15314 344.09064 571.15314 342.91876ZM572.98126 341.4344Q572.59064 341.4344 572.325 341.77814Q572.075 342.1219 572.075 343.02814Q572.075 343.85626 572.325 344.2Q572.59064 344.52814 572.98126 344.52814Q573.3875 344.52814 573.6375 344.1844Q573.90314 343.84064 573.90314 342.95Q573.90314 342.10626 573.6375 341.77814Q573.3719 341.4344 572.98126 341.4344ZM572.98126 349.7625L577.6844 340.71564L578.54376 340.71564L573.85626 349.7625L572.98126 349.7625ZM576.7 347.4344Q576.7 346.5125 577.15314 345.8719Q577.6219 345.23126 578.5125 345.23126Q579.325 345.23126 579.85626 345.8094Q580.3875 346.3719 580.3875 347.4969Q580.3875 348.59064 579.84064 349.1844Q579.3094 349.7625 578.5125 349.7625Q577.7469 349.7625 577.21564 349.1844Q576.7 348.60626 576.7 347.4344ZM578.54376 345.95Q578.1375 345.95 577.8719 346.29376Q577.6219 346.6375 577.6219 347.54376Q577.6219 348.35626 577.8875 348.7Q578.15314 349.04376 578.54376 349.04376Q578.9344 349.04376 579.2 348.7Q579.46564 348.35626 579.46564 347.45Q579.46564 346.6219 579.2 346.29376Q578.9344 345.95 578.54376 345.95Z" fill-rule="nonzero"/><path stroke="#757575" stroke-width="1.0" stroke-linecap="butt" d="M581.45 336.95L472.95 336.95L344.04938 337.86273" fill-rule="nonzero"/><path fill="#9e9e9e" d="M346.04938 337.86273C346.04938 336.75818 345.15396 335.86273 344.04938 335.86273C342.94482 335.86273 342.04938 336.75818 342.04938 337.86273C342.04938 338.96732 342.94482 339.86273 344.04938 339.86273C345.15396 339.86273 346.04938 338.96732 346.04938 337.86273" fill-rule="nonzero"/></svg>